<svg width="420" height="638" viewBox="0 0 420 638" fill="none" xmlns="http://www.w3.org/2000/svg">
<path opacity="0.1" d="M226.432 637.141C273.72 637.141 312.054 633.897 312.054 629.896C312.054 625.895 273.72 622.651 226.432 622.651C179.145 622.651 140.811 625.895 140.811 629.896C140.811 633.897 179.145 637.141 226.432 637.141Z" fill="black"/>
<path d="M319.707 385.314C319.707 385.314 291.351 378.944 243.226 416.33C243.226 416.33 167.62 417.829 159.331 452.228C159.331 452.228 154.425 443.047 150.085 454.299L134.225 477.831L248.039 461.218L249.911 460.943C252.635 460.547 255.26 459.625 257.64 458.231L323.388 419.643L340.847 399.618L319.707 385.32V385.314Z" fill="#EF970A"/>
<path d="M148.936 456.539L93.8106 451.861L93.6356 458.184L131.22 463.877C131.22 463.877 86.5073 462.303 88.4731 508.736C88.4731 508.736 103.681 469.728 149.641 479.155L148.93 456.539H148.936Z" fill="#FF3E4C"/>
<path d="M389.883 291.048C386.82 287.081 310.736 311.598 310.736 311.598L247.66 290.61L255.109 227.225L320.711 278.57L380.555 281.061L389.888 291.053L389.883 291.048Z" fill="#EF970A"/>
<path d="M390.215 284.275L398.626 291.474L406.735 304.925L406.21 306.279C406 306.815 405.667 307.288 405.23 307.667L405.055 307.819C404.629 308.186 403.97 308.093 403.672 307.614L395.85 294.338C395.78 294.227 395.686 294.134 395.575 294.058L386.435 286.474L394.514 295.837C394.572 295.895 394.619 295.965 394.66 296.035L403.229 312.024L402.54 313.471C402.144 314.305 401.251 314.784 400.341 314.655L399.67 314.556C399.35 314.509 399.075 314.299 398.947 313.996L391.008 297.978C390.955 297.844 390.868 297.727 390.757 297.628L382.818 289.117L391.107 300.655C391.171 300.737 391.218 300.83 391.247 300.929L397.016 318.89L396.55 320.028C396.13 321.043 394.986 321.544 393.96 321.165L393.079 320.839C392.787 320.728 392.565 320.483 392.501 320.174L386.86 302.388C386.831 302.265 386.779 302.149 386.703 302.044L380.473 294.32L379.114 294.104L379.435 304.616C379.341 304.943 379.073 305.194 378.74 305.269L376.32 305.794L374.126 303.887C373.887 303.677 373.77 303.362 373.823 303.047L374.535 295.032C374.535 295.032 377.224 281.382 379.627 281.084C383.448 280.606 387.298 281.761 390.22 284.269L390.215 284.275Z" fill="#EF970A"/>
<path d="M173.919 345.537C173.919 345.537 164.259 427.729 184.787 485.117C184.787 485.117 176.194 546.145 206.294 564.748C206.294 564.748 196.045 566.55 205.378 574.175L221.56 586.53L245.103 505.738L246.282 504.128C248.907 500.535 249.928 496.014 249.093 491.639L248.726 489.72L261.122 405.165L212.874 375.876L173.919 345.543V345.537Z" fill="#F0B61B"/>
<path d="M203.36 573.76L203.004 629.084L209.321 628.763L212.057 590.852C212.057 590.852 213.982 635.547 260.124 629.959C260.124 629.959 220.049 617.849 225.853 571.287L203.36 573.76Z" fill="#FF3E4C"/>
<path d="M244.917 122.779L247.064 146.101L247.157 175.723L262.376 265.702L282.081 308.991L296.309 329.699L328.906 368.788L347.316 385.991L368.281 402.26C366 407.37 364.139 411.518 363.211 413.524C359.426 421.732 357.045 428.458 351.667 431.637C349.06 433.183 335.293 435.72 333.823 437.663L326.216 439.698L322.279 439.448L302.772 438.217L297.429 437.878L258.9 427.758L218.206 404.879L160.223 337.603L131.628 251.282L131.424 203.279L142.128 152.792L160.52 110.243L168.903 99.411C187.937 102.87 187.488 54.5293 222.045 74.7302C227.954 78.1835 238.926 116.958 244.923 122.768L244.917 122.779Z" fill="#F0B61B"/>
<path d="M353.614 416.447C357.173 410.555 362.498 397.757 368.151 402.179L368.273 402.272L393.351 405.789C394.634 406.104 395.696 407.615 394.395 418.559C394.395 418.559 389.658 429.846 386.841 429.502L372.672 428.09C371.103 427.898 369.516 428.014 367.988 428.423L333.699 437.587C335.169 435.644 346.387 428.423 353.614 416.447Z" fill="#262112"/>
<path d="M227.247 72.9978L235.157 94.2136L244.911 122.779L256.332 159.774L266.92 194.319C224.757 195.06 244.648 174.55 225.847 173.973C212.197 173.553 204.06 169.942 201.312 163.164C199.574 158.876 198.991 147.676 194.837 139.492C192.358 134.609 176.9 134.499 174.053 129.873C168.401 120.674 167.701 108.196 162.795 107.304L189.908 72.0294C194.417 67.4561 197.497 61.6636 198.763 55.3694L206.592 16.4028L207.233 13.2236C207.869 10.0503 209.765 7.26776 212.483 5.51193L217.587 2.2161C223.642 -1.69807 231.692 -0.303902 236.079 5.42443L237.59 7.3961C239.9 10.4061 240.647 14.3378 239.602 17.9836L226.682 63.1686C225.754 66.4178 225.952 69.8828 227.253 73.0036L227.247 72.9978Z" fill="#262112"/>
<path d="M292.848 431.747C276.836 427.874 275.879 419.55 272.782 415.012C269.684 410.479 270.022 403.047 261.541 400.061C253.059 397.08 243.889 426.398 243.148 440.702C242.629 450.688 250.948 474.692 250.948 474.692L258.77 427.687L297.299 437.808L302.643 438.147L311.83 438.724C308.05 435.265 303.459 434.32 292.848 431.753V431.747Z" fill="#262112"/>
<path d="M319.886 357.734L296.278 329.425L282.051 308.717L274.683 292.529C273.464 295.417 272.665 299.722 273.458 306.914C274.059 312.374 282.068 317.758 286.56 325.546C291.052 333.333 294.639 329.431 298.582 334.599C307.507 346.307 314.332 352.723 319.886 357.728V357.734Z" fill="#262112"/>
<path d="M173.738 343.519C165.484 331.222 170.011 325.202 170.763 320.354C171.516 315.507 176.352 310.864 172.554 303.741C168.762 296.619 151.764 311.896 140.062 326.66L154.062 319.532L160.088 337.528L162.451 350.618L171.422 373.788C172.052 367.243 180.412 353.47 173.738 343.519Z" fill="#262112"/>
<path d="M217.86 222.74C215.883 224.869 213.637 228.456 210.382 228.41C209.227 228.345 207.915 227.669 207.582 226.496L207.716 226.38C209.18 226.945 210.23 226.689 211.578 226.455C212.984 226.187 214.092 225.26 215.276 224.396C216.099 223.801 216.904 223.183 217.744 222.605L217.86 222.734V222.74Z" fill="#F09E1F"/>
<path d="M233.652 221.794C234.976 222.512 236.399 223.019 237.864 223.27C239.45 223.358 240.669 223.428 242.233 224.069L242.262 224.239C240.903 225.464 239.019 225.359 237.49 224.618C235.974 224.058 234.614 223.113 233.541 221.934L233.652 221.794Z" fill="#F09E1F"/>
<path d="M212.92 219.141C216.28 219.141 219.004 216.417 219.004 213.056C219.004 209.696 216.28 206.972 212.92 206.972C209.56 206.972 206.836 209.696 206.836 213.056C206.836 216.417 209.56 219.141 212.92 219.141Z" fill="#FFFBE9"/>
<path d="M234.912 217.344C238.101 217.344 240.687 214.758 240.687 211.569C240.687 208.379 238.101 205.794 234.912 205.794C231.722 205.794 229.137 208.379 229.137 211.569C229.137 214.758 231.722 217.344 234.912 217.344Z" fill="#FFFBE9"/>
<path d="M212.921 216.334C214.731 216.334 216.199 214.867 216.199 213.056C216.199 211.246 214.731 209.778 212.921 209.778C211.11 209.778 209.643 211.246 209.643 213.056C209.643 214.867 211.11 216.334 212.921 216.334Z" fill="#212222"/>
<path d="M234.912 214.66C236.619 214.66 238.004 213.276 238.004 211.569C238.004 209.861 236.619 208.477 234.912 208.477C233.204 208.477 231.82 209.861 231.82 211.569C231.82 213.276 233.204 214.66 234.912 214.66Z" fill="#212222"/>
<path d="M219.075 197.586L208.114 200.713L196.354 204.061L195.631 201.623L217.226 191.094L219.075 197.586Z" fill="#212222"/>
<path d="M227.895 196.688L244.082 201.285L244.397 199.505L229.213 192.062L227.895 196.688Z" fill="#212222"/>
<path d="M222.859 199.762L222.381 232.096L232.362 231.7L222.859 199.762Z" fill="#EE424F"/>
<path d="M234.339 271.086C232.496 269.249 229.62 269.721 227.637 271.04C226.61 271.699 225.788 272.65 224.714 273.367C223.641 274.096 222.527 274.779 221.22 275.228L221.109 275.094C223.128 271.757 226.943 268.718 231.02 269.01C232.391 269.161 233.768 269.826 234.479 270.975L234.339 271.08V271.086Z" fill="#F09E1F"/>
<path d="M192.935 256.579C189.628 250.541 191.628 241.039 198.407 238.338L198.506 238.484C197.421 239.855 196.458 241.161 195.601 242.55C193.798 245.239 192.206 248.22 192.288 251.574C192.258 253.23 192.579 254.887 193.098 256.509L192.935 256.579Z" fill="#F09E1F"/>
<path d="M246.8 236.903C246.543 236.681 246.281 236.46 246.001 236.256C240.273 231.986 232.164 233.17 227.894 238.898C226.757 240.426 225.123 241.371 223.385 241.692C221.46 242.048 219.401 241.64 217.709 240.386C211.981 236.116 203.873 237.3 199.603 243.028C196.278 247.491 196.272 253.388 199.136 257.804C202.788 254.298 207.979 252.484 213.363 253.365C220.684 254.561 226.08 260.359 227.136 267.318C234.311 266.21 240.786 262.861 245.773 257.74C246.8 256.69 247.763 255.564 248.655 254.362C252.721 248.908 251.84 241.307 246.806 236.903H246.8Z" fill="#262112"/>
<path d="M213.358 253.365C207.974 252.49 202.783 254.298 199.131 257.804C199.942 259.058 200.974 260.196 202.24 261.141C208.698 265.953 216.508 268.217 224.459 267.627C225.253 267.569 226.052 267.482 226.845 267.365C226.938 267.353 227.032 267.33 227.125 267.318C226.069 260.359 220.673 254.555 213.353 253.365H213.358Z" fill="#B3323B"/>
<path d="M131.711 248.003L116.48 266.017L109.981 279.317L97.8714 304.633L91.828 317.263L41.0547 345.134C42.163 344.743 43.2539 344.364 44.2514 344.02C47.203 342.988 54.3955 350.052 60.5089 356.935C87.3189 351.773 119.659 346.925 119.659 346.925L175.268 291.73L131.711 248.009V248.003Z" fill="#F0B61B"/>
<path d="M131.418 203.291L131.546 234.045C137.415 230.014 146.684 229.215 149.548 217.997C152.564 206.19 137.741 195.066 140.104 186.579C142.093 179.433 145.488 161.315 144.018 148.423L142.122 152.81L131.418 203.297V203.291Z" fill="#262112"/>
<path d="M27.4684 360.972L30.2217 352.543L36.4167 349.34C35.2384 349.719 34.0076 350.116 32.9692 350.449C31.3592 350.968 30.0467 352.134 29.3467 353.669L20.9059 372.201L18.6426 393.195L20.0542 394.549C20.6142 395.085 21.2909 395.47 22.0317 395.686L22.3292 395.768C23.0584 395.978 23.8051 395.488 23.8984 394.729L25.9051 374.109C25.9284 373.934 25.9867 373.764 26.0801 373.619L32.9226 359.199L28.3842 375.194C28.3492 375.299 28.3259 375.409 28.3201 375.514L26.9434 399.863L28.6001 401.24C29.5509 402.033 30.9101 402.109 31.9484 401.432L32.7126 400.93C33.0801 400.691 33.2959 400.277 33.2726 399.839L33.8734 375.812C33.8676 375.619 33.9026 375.421 33.9842 375.246L38.8376 360.377L35.2734 379.137C35.2442 379.271 35.2384 379.411 35.2559 379.545L38.4059 404.71L39.6192 405.83C40.7042 406.828 42.3842 406.793 43.4226 405.743L44.3151 404.845C44.6126 404.547 44.7351 404.121 44.6476 403.707L41.4451 378.834C41.4101 378.664 41.4101 378.495 41.4451 378.326L44.6592 365.382L46.1934 364.355L51.7642 377.346C52.0617 377.696 52.5284 377.848 52.9776 377.749L56.2209 377.014L57.8134 373.444C57.9884 373.053 57.9476 372.598 57.7084 372.248L52.3009 362.885C52.3009 362.885 49.8626 359.537 46.9517 356.101C36.6151 357.822 27.7601 359.665 27.4626 360.972H27.4684Z" fill="#F0B61B"/>
<path d="M44.2456 344.014C43.2481 344.364 42.1631 344.744 41.0489 345.129L29.9364 351.224L25.3164 366.665C25.7889 364.285 41.8014 360.529 60.5031 356.924C54.3897 350.046 47.1972 342.982 44.2456 344.009V344.014Z" fill="#F0B61B"/>
<path d="M107.432 299.64C109.03 296.362 106.499 293.807 107.7 291.462C108.68 289.554 109.526 283.132 109.975 279.317L97.8652 304.634C98.9969 304.056 100.059 303.817 100.875 303.397C102.847 302.382 105.834 302.919 107.432 299.64Z" fill="#262112"/>
<path d="M46.5613 342.107L41.0488 345.134C42.1572 344.744 43.248 344.364 44.2455 344.02C45.4297 343.606 47.3022 344.499 49.513 346.161C48.0138 344.458 47.1097 342.871 47.1097 342.871C47.1097 342.871 46.9113 342.591 46.5672 342.113L46.5613 342.107Z" fill="#F0B61B"/>
<path d="M53.1109 349.229C51.8509 348.051 50.6376 347.007 49.5117 346.155C50.4917 347.269 51.7167 348.424 53.1109 349.229Z" fill="#262112"/>
<path d="M57.8364 350.11C66.3356 348.162 62.5731 341.611 74.2747 337.854C79.3206 336.233 79.7814 330.493 78.6731 324.49L46.5664 342.113C46.9106 342.591 47.1089 342.871 47.1089 342.871C47.1089 342.871 48.0189 344.458 49.5122 346.161C50.6381 347.007 51.8514 348.057 53.1114 349.235C54.5464 350.058 56.1506 350.501 57.8364 350.116V350.11Z" fill="#262112"/>
<path d="M352.199 298.958C352.024 298.719 351.925 298.573 351.925 298.573C351.925 298.573 351.015 296.986 349.522 295.283C348.396 294.437 347.183 293.387 345.923 292.209C344.488 291.386 342.883 290.943 341.198 291.328C332.698 293.276 336.461 299.827 324.759 303.584C322.257 304.389 320.88 306.209 320.268 308.577C328.306 306.057 340.358 302.353 352.199 298.952V298.958Z" fill="#262112"/>
<path d="M170.618 468.375C169.229 467.477 167.654 466.946 165.951 467.244C160.269 468.23 159.832 471.514 156.758 474.529L174.386 472.08C174.275 471.934 174.17 471.788 174.048 471.636C172.969 470.732 171.808 469.618 170.618 468.375Z" fill="#262112"/>
<path d="M262.65 233.128L265.252 243.127C265.252 243.127 268.175 267.364 276.954 269.873C285.727 272.381 290.324 254.828 298.683 263.188C301.209 265.713 303.962 266.973 306.575 267.51L262.65 233.128Z" fill="#262112"/>
<path d="M398.33 280.081L398.983 280.215C403.889 281.242 408.398 283.651 411.98 287.163L412.453 287.629L412.587 286.976C413.613 282.07 416.023 277.561 419.534 273.979L420.001 273.507L419.348 273.373C414.442 272.346 409.933 269.937 406.351 266.425L405.878 265.958L405.744 266.612C404.718 271.518 402.308 276.027 398.797 279.608L398.33 280.081Z" fill="#00CCFF"/>
<path d="M370.888 321.2L371.017 320.722C371.997 317.123 373.992 313.879 376.757 311.383L377.124 311.05L376.646 310.922C373.047 309.942 369.803 307.947 367.307 305.182L366.974 304.814L366.846 305.293C365.866 308.892 363.871 312.135 361.106 314.632L360.738 314.964L361.217 315.093C364.816 316.073 368.059 318.068 370.556 320.833L370.888 321.2Z" fill="#00CCFF"/>
<path d="M24.3017 406.53L23.8058 407.108C20.0608 411.471 17.64 416.814 16.8408 422.508L16.7358 423.266L16.1583 422.77C11.795 419.025 6.45167 416.604 0.758333 415.805L0 415.7L0.495833 415.123C4.24083 410.759 6.66167 405.416 7.46083 399.723L7.56583 398.964L8.14333 399.46C12.5067 403.205 17.85 405.626 23.5433 406.425L24.3017 406.53Z" fill="#00CCFF"/>
<path d="M64.8669 384.772L64.6219 384.912C62.7611 385.985 61.2444 387.566 60.2586 389.473L60.1302 389.724L59.9902 389.479C58.9169 387.618 57.3361 386.102 55.4286 385.116L55.1777 384.988L55.4227 384.848C57.2836 383.774 58.8002 382.193 59.7861 380.286L59.9144 380.035L60.0544 380.28C61.1277 382.141 62.7086 383.658 64.6161 384.644L64.8669 384.772Z" fill="#00CCFF"/>
<path d="M407.914 326.31L407.669 326.45C405.808 327.524 404.291 329.105 403.305 331.012L403.177 331.263L403.037 331.018C401.964 329.157 400.383 327.64 398.475 326.655L398.225 326.526L398.47 326.386C400.33 325.313 401.847 323.732 402.833 321.825L402.961 321.574L403.101 321.819C404.175 323.68 405.755 325.196 407.663 326.182L407.914 326.31Z" fill="#00CCFF"/>
<path d="M27.4916 341.144L26.7391 341.249C21.0749 342.054 15.7608 344.464 11.4208 348.191L10.8433 348.687L10.7383 347.934C9.93328 342.27 7.52411 336.956 3.79661 332.616L3.30078 332.039L4.05328 331.934C9.71745 331.129 15.0316 328.719 19.3716 324.992L19.9491 324.496L20.0541 325.249C20.8591 330.913 23.2683 336.227 26.9958 340.567L27.4916 341.144Z" fill="#00CCFF"/>
</svg>
