<svg width="420" height="525" viewBox="0 0 420 525" fill="none" xmlns="http://www.w3.org/2000/svg">
<g clip-path="url(#clip0_46_1316)">
<path d="M241.415 141.628L119.625 159.222L121.029 168.937L242.818 151.344L241.415 141.628Z" fill="#E72432"/>
<path d="M254.083 127.21L107.05 149.276C107.05 149.276 38.8524 38.0974 41.9563 37.6276L282.984 0.99996C286.084 0.530206 254.083 127.21 254.083 127.21Z" fill="#FFC263"/>
<path d="M253.417 132.117L107.671 152.9L41.6767 47.4115C39.5343 45.1637 40.825 41.432 43.8982 40.9886L282.819 6.46822C285.892 6.0248 288.184 9.23406 286.766 11.9999L253.417 132.121V132.117Z" fill="#E72432"/>
<path d="M295.679 125.596L63.9531 159.071L65.3566 168.786L297.082 135.312L295.679 125.596Z" fill="#FF3E4C"/>
<path d="M303.602 441.123L121.654 461.432C114.577 462.222 108.505 456.427 108.966 449.319L122.457 241.174L84.2402 167.919L284.206 145.599L276.594 158.796C269.082 161.658 263.77 168.433 262.769 176.41L256.561 226.05L313.344 426.635C315.272 433.436 310.627 440.341 303.602 441.127V441.123Z" fill="#00CCFF" fill-opacity="0.9"/>
<path d="M63.4134 291.28C59.8529 259.372 82.6733 230.607 114.472 226.744L100.054 199.103C57.7763 209.644 28.7789 250.095 33.7442 294.59C38.4988 337.202 72.8216 369.329 113.98 372.815L115.912 343.01C88.9426 340.433 66.5392 319.272 63.4134 291.276V291.28Z" fill="#E72432"/>
<path d="M255.319 226.239L123.121 240.994C120.654 241.271 118.27 240.002 117.119 237.803L94.2288 194.041C92.2663 190.287 94.6853 185.739 98.8956 185.269L260.263 167.26C264.153 166.826 267.414 170.162 266.896 174.039L260.618 221.058C260.254 223.798 258.068 225.936 255.319 226.243V226.239Z" fill="#FF3E4C"/>
<path d="M207.479 414.839C207.479 414.839 260.649 462.442 311.303 476.447C311.303 476.447 384.558 510.159 394.568 507.358L411.269 469.387C409.53 467.346 406.351 467.429 404.723 469.558L390.735 487.901L355.776 444.139L355.223 442.51C353.994 438.875 351.307 435.912 347.812 434.331L346.276 433.638L292.798 382.93L248.202 402.419L207.479 414.839Z" fill="#432316"/>
<path d="M218.709 437.76C218.709 437.76 155.836 471.525 103.307 473.224C103.307 473.224 29.5076 490.961 20.4373 485.886L3.3418 446.325C4.75106 444.359 7.66617 444.341 9.09739 446.286L23.4095 465.686L67.6806 431.372L68.5982 429.919C70.6484 426.675 73.9542 424.427 77.7254 423.711L79.385 423.395L143.285 386.684L182.05 416.112L218.713 437.76H218.709Z" fill="#432316"/>
<path d="M108.628 449.407C108.167 456.537 114.256 462.354 121.36 461.559L303.91 441.184C310.961 440.398 315.614 433.471 313.683 426.648L300.701 380.788H113.08L108.632 449.412L108.628 449.407Z" fill="#432316"/>
<path d="M376.194 523.29C387.147 525.156 398.571 521.877 406.781 514.383C411.72 509.984 416.145 505.242 419.758 499.579L419.999 499.68C419.473 501.906 418.524 504.022 417.4 506.019C414.046 512.113 408.734 516.898 402.623 520.134C396.622 523.484 389.672 525.086 382.819 524.612C380.558 524.45 378.323 524.076 376.137 523.545L376.189 523.286L376.194 523.29Z" fill="#00CCFF"/>
<path d="M300.62 143.961C304.989 137.784 305.125 131.239 302.583 124.324C301.876 122.16 300.998 120.052 299.883 117.954L300.015 117.84C300.976 118.582 301.771 119.517 302.464 120.513C306.604 126.405 306.617 135.124 302.877 141.213C302.254 142.232 301.534 143.184 300.752 144.071L300.616 143.961H300.62Z" fill="#00CCFF"/>
<path d="M49.7676 495.711C44.4028 499.908 37.8701 502.669 31.0609 503.306C21.9336 504.074 12.319 502.028 4.94779 496.418C3.11267 495.048 1.38731 493.498 0 491.676L0.179999 491.488C3.92925 493.972 7.84973 495.948 11.9063 497.564C15.9585 499.14 20.0765 500.65 24.4053 501.243C30.9336 502.165 37.6769 501.291 43.7442 498.67C45.7681 497.77 47.7262 496.703 49.6184 495.505L49.772 495.72L49.7676 495.711Z" fill="#00CCFF"/>
<path d="M188.732 338.558C193.748 338.558 197.815 334.492 197.815 329.475C197.815 324.458 193.748 320.392 188.732 320.392C183.715 320.392 179.648 324.458 179.648 329.475C179.648 334.492 183.715 338.558 188.732 338.558Z" fill="#FFFBE9"/>
<path d="M221.497 335.103C226.257 335.103 230.115 331.245 230.115 326.485C230.115 321.726 226.257 317.867 221.497 317.867C216.737 317.867 212.879 321.726 212.879 326.485C212.879 331.245 216.737 335.103 221.497 335.103Z" fill="#FFFBE9"/>
<path d="M188.5 335.858C192.09 335.858 195 332.948 195 329.358C195 325.768 192.09 322.858 188.5 322.858C184.91 322.858 182 325.768 182 329.358C182 332.948 184.91 335.858 188.5 335.858Z" fill="#212222"/>
<path d="M221.5 332.858C225.09 332.858 228 329.948 228 326.358C228 322.768 225.09 319.858 221.5 319.858C217.91 319.858 215 322.768 215 326.358C215 329.948 217.91 332.858 221.5 332.858Z" fill="#212222"/>
<path d="M213.317 304.218L235.255 306.47C236.111 306.558 236.858 305.886 236.858 305.026C236.858 304.38 236.427 303.81 235.808 303.63L214.274 297.413C213.405 297.163 212.518 297.76 212.426 298.66L212.018 302.624C211.934 303.423 212.518 304.135 213.313 304.218H213.317Z" fill="#212222"/>
<path d="M193.983 306.224L172.533 311.352C171.694 311.554 170.869 310.983 170.754 310.132C170.671 309.491 171.018 308.872 171.611 308.608L192.135 299.604C192.965 299.24 193.922 299.714 194.132 300.596L195.059 304.473C195.248 305.254 194.765 306.036 193.983 306.224Z" fill="#212222"/>
<g opacity="0.16">
<path d="M137.279 371.955C136.098 366.875 136.963 361.423 139.641 356.936C141.572 353.498 144.408 350.539 147.969 348.796C149.137 348.208 150.37 347.73 151.661 347.51L151.723 347.672C149.554 349.042 147.605 350.57 145.8 352.247C140.914 356.55 137.652 361.467 137.314 368.144C137.266 369.4 137.314 370.664 137.45 371.924L137.279 371.955Z" fill="#0F1526"/>
</g>
<g opacity="0.16">
<path d="M279.808 362.384C280.743 354.196 277.516 347.984 271.458 342.707C269.649 341.03 267.7 339.498 265.535 338.133L265.597 337.97C266.887 338.194 268.121 338.673 269.289 339.256C276.256 342.733 280.809 350.873 280.488 358.604C280.431 359.895 280.251 361.168 279.983 362.419L279.812 362.389L279.808 362.384Z" fill="#0F1526"/>
</g>
<path d="M266.01 347.462C265.408 346.891 264.785 346.338 264.126 345.807C250.543 334.866 230.659 337.009 219.719 350.596C216.799 354.223 212.734 356.378 208.458 357.002C203.73 357.695 198.742 356.514 194.739 353.288C181.155 342.347 161.272 344.49 150.331 358.077C141.81 368.658 141.261 383.045 147.838 394.068C149.704 397.194 152.114 400.065 155.117 402.484C170.43 414.817 189.268 421.055 208.708 420.348C210.653 420.278 212.602 420.138 214.556 419.927C214.784 419.901 215.013 419.865 215.241 419.839C232.837 417.793 248.936 410.22 261.571 398.182C264.166 395.71 266.62 393.054 268.907 390.214C279.316 377.285 277.872 358.661 266.001 347.462H266.01Z" fill="#FFF3BD"/>
<path d="M204.323 318.074L204.319 318.075C201.848 318.297 200.026 320.479 200.247 322.95L202.306 345.884C202.528 348.355 204.711 350.178 207.181 349.956L207.185 349.955C209.656 349.734 211.479 347.551 211.257 345.081L209.198 322.146C208.976 319.676 206.794 317.853 204.323 318.074Z" fill="#FF3E4C"/>
<path d="M205.941 357.191L207.579 420.379C207.957 420.37 208.334 420.366 208.716 420.348C208.734 420.348 208.756 420.348 208.773 420.348L207.136 357.142C206.74 357.169 206.341 357.186 205.941 357.191Z" fill="#212222"/>
<path d="M222.988 347.106L234.047 415.357C234.429 415.216 234.807 415.071 235.184 414.926L224.046 346.184C223.691 346.483 223.335 346.79 222.988 347.106Z" fill="#212222"/>
<path d="M239.549 339.186L258.963 400.566C259.292 400.281 259.617 399.991 259.938 399.697L240.748 339.028C240.348 339.072 239.944 339.125 239.545 339.186H239.549Z" fill="#212222"/>
<path d="M189.4 349.806L176.822 415.032C177.2 415.177 177.577 415.317 177.955 415.458L190.498 350.412C190.133 350.206 189.769 349.999 189.4 349.811V349.806Z" fill="#212222"/>
<path d="M171.47 346.496L152.268 399.863C152.571 400.18 152.882 400.487 153.203 400.794L172.779 346.386C172.34 346.417 171.905 346.452 171.47 346.5V346.496Z" fill="#212222"/>
</g>
<defs>
<clipPath id="clip0_46_1316">
<rect width="420" height="525" fill="white"/>
</clipPath>
</defs>
</svg>
